HIERARCHY
ROOT Hips
{
	OFFSET 0.00000 0.00000 0.00000
	CHANNELS 6 Xposition Yposition Zposition Zrotation Yrotation Xrotation 
	JOINT LHipJoint
	{
		OFFSET 0 0 0
		CHANNELS 3 Zrotation Yrotation Xrotation
		JOINT LeftUpLeg
		{
			OFFSET 1.57314 -1.85774 0.63783
			CHANNELS 3 Zrotation Yrotation Xrotation
			JOINT LeftLeg
			{
				OFFSET 2.57982 -7.08799 0.00000
				CHANNELS 3 Zrotation Yrotation Xrotation
				JOINT LeftFoot
				{
					OFFSET 2.63993 -7.25315 0.00000
					CHANNELS 3 Zrotation Yrotation Xrotation
					JOINT LeftToeBase
					{
						OFFSET 0.16864 -0.46332 2.12791
						CHANNELS 3 Zrotation Yrotation Xrotation
						End Site
						{
							OFFSET 0.00000 -0.00000 1.09718
						}
					}
				}
			}
		}
	}
	JOINT RHipJoint
	{
		OFFSET 0 0 0
		CHANNELS 3 Zrotation Yrotation Xrotation
		JOINT RightUpLeg
		{
			OFFSET -1.56006 -1.85774 0.63784
			CHANNELS 3 Zrotation Yrotation Xrotation
			JOINT RightLeg
			{
				OFFSET -2.54246 -6.98536 0.00000
				CHANNELS 3 Zrotation Yrotation Xrotation
				JOINT RightFoot
				{
					OFFSET -2.65791 -7.30256 0.00000
					CHANNELS 3 Zrotation Yrotation Xrotation
					JOINT RightToeBase
					{
						OFFSET -0.18435 -0.50650 2.16316
						CHANNELS 3 Zrotation Yrotation Xrotation
						End Site
						{
							OFFSET -0.00000 -0.00000 1.11780
						}
					}
				}
			}
		}
	}
	JOINT LowerBack
	{
		OFFSET 0 0 0
		CHANNELS 3 Zrotation Yrotation Xrotation
		JOINT Spine
		{
			OFFSET -0.00136 1.92812 -0.29638
			CHANNELS 3 Zrotation Yrotation Xrotation
			JOINT Spine1
			{
				OFFSET -0.00528 1.96223 -0.02928
				CHANNELS 3 Zrotation Yrotation Xrotation
				JOINT Neck
				{
					OFFSET 0 0 0
					CHANNELS 3 Zrotation Yrotation Xrotation
					JOINT Neck1
					{
						OFFSET -0.01015 1.75586 0.07797
						CHANNELS 3 Zrotation Yrotation Xrotation
						JOINT Head
						{
							OFFSET 0.05540 1.72452 0.04558
							CHANNELS 3 Zrotation Yrotation Xrotation
							End Site
							{
								OFFSET 0.02170 1.79958 0.00864
							}
						}
					}
				}
				JOINT LeftShoulder
				{
					OFFSET 0 0 0
					CHANNELS 3 Zrotation Yrotation Xrotation
					JOINT LeftArm
					{
						OFFSET 3.16292 1.29277 -0.65728
						CHANNELS 3 Zrotation Yrotation Xrotation
						JOINT LeftForeArm
						{
							OFFSET 5.52302 -0.00000 -0.00000
							CHANNELS 3 Zrotation Yrotation Xrotation
							JOINT LeftHand
							{
								OFFSET 3.58675 -0.00000 -0.00000
								CHANNELS 3 Zrotation Yrotation Xrotation
								JOINT LeftFingerBase
								{
									OFFSET 0 0 0
									CHANNELS 3 Zrotation Yrotation Xrotation
									JOINT LeftHandIndex1
									{
										OFFSET 0.53641 -0.00000 -0.00000
										CHANNELS 3 Zrotation Yrotation Xrotation
										End Site
										{
											OFFSET 0.43247 -0.00000 -0.00000
										}
									}
								}
								JOINT LThumb
								{
									OFFSET 0 0 0
									CHANNELS 3 Zrotation Yrotation Xrotation
									End Site
									{
										OFFSET 0.43907 -0.00000 0.43907
									}
								}
							}
						}
					}
				}
				JOINT RightShoulder
				{
					OFFSET 0 0 0
					CHANNELS 3 Zrotation Yrotation Xrotation
					JOINT RightArm
					{
						OFFSET -3.08296 1.43376 -0.52927
						CHANNELS 3 Zrotation Yrotation Xrotation
						JOINT RightForeArm
						{
							OFFSET -5.84780 -0.00000 0.00000
							CHANNELS 3 Zrotation Yrotation Xrotation
							JOINT RightHand
							{
								OFFSET -3.62717 -0.00000 -0.00000
								CHANNELS 3 Zrotation Yrotation Xrotation
								JOINT RightFingerBase
								{
									OFFSET 0 0 0
									CHANNELS 3 Zrotation Yrotation Xrotation
									JOINT RightHandIndex1
									{
										OFFSET -0.65052 -0.00000 -0.00000
										CHANNELS 3 Zrotation Yrotation Xrotation
										End Site
										{
											OFFSET -0.52446 -0.00000 -0.00000
										}
									}
								}
								JOINT RThumb
								{
									OFFSET 0 0 0
									CHANNELS 3 Zrotation Yrotation Xrotation
									End Site
									{
										OFFSET -0.53247 -0.00000 0.53247
									}
								}
							}
						}
					}
				}
			}
		}
	}
}
MOTION
Frames: 10
Frame Time: .0083333
1.3078 18.31 -31.1539 0 0 0 0 0 0 -21 0 0 0 0 0 0 0 0 0 0 0 0 0 0 21 0 0 0 0 0 0 0 0 0 0 0 0 0 0 0 0 0 0 0 0 0 0 -16 0 0 21 0 0 11 0 0 0 -8 0 0 0 0 0 0 0 0 0 0 0 0 0 0 0 0 0 0 0 0 8 0 0 0 0 0 0 0 0 0 0 0 0 0 0 0 0 0
1.3078 18.3100 -31.1539 -8.1168 2.6843 4.7731 0.0000 0.0000 0.0000 -5.9321 -17.5093 -35.5259 2.3056 9.4755 27.2943 0.0587 -1.0279 5.0785 0.3238 -3.6578 -10.1158 0.0000 0.0000 0.0000 36.5933 -3.4825 23.9931 -2.4349 -9.7186 28.0703 -2.7294 -13.0358 29.8747 -0.4174 -4.1471 11.4908 8.5885 0.1246 13.4089 0.3345 1.4999 0.5771 -4.7819 0.4694 -6.7200 0.3485 -0.8059 -9.2944 0.1716 -1.0803 -8.9870 -0.0211 -0.5449 -1.2501 0.0000 0.0000 0.0000 -85.2788 34.4877 39.2777 121.1571 -55.9937 -86.6199 -0.0000 0.0000 -25.9854 37.6174 7.2234 5.5342 -7.1250 0.0000 -0.0000 9.3806 38.9078 -1.4226 0.0000 0.0000 0.0000 78.7884 4.5600 52.4535 -128.9766 53.4000 -93.0064 0.0000 0.0000 0.9248 -44.0216 25.3399 -22.4707 7.1250 -0.0000 -0.0000 -8.4064 3.0688 -8.9392
1.2989 18.2835 -30.6310 -8.2700 2.4525 4.6130 0.0000 0.0000 0.0000 -6.6137 -16.4350 -34.4904 2.0260 8.9199 25.5452 0.0423 -0.8458 4.2940 0.7377 -5.4869 -15.3028 0.0000 0.0000 0.0000 36.5863 -3.3489 21.7552 -3.5073 -11.4742 33.8964 -2.9860 -14.4705 31.3670 -0.8190 -5.7747 16.1320 8.5222 0.1760 13.3090 0.3807 1.5360 0.8445 -4.6951 0.5137 -6.3730 0.2237 -0.7570 -9.1759 0.3337 -0.9944 -9.5600 0.0526 -0.4999 -1.4491 0.0000 0.0000 0.0000 -85.5998 33.3736 39.0989 121.1299 -56.0013 -86.5973 -0.0000 0.0000 -25.6417 37.6081 6.8719 5.2661 -7.1250 0.0000 -0.0000 9.3439 38.4721 -1.5180 0.0000 0.0000 0.0000 78.4707 3.8095 53.1087 -126.9632 54.1492 -91.3821 0.0000 0.0000 0.5733 -41.3355 23.0252 -18.9859 7.1250 -0.0000 -0.0000 -7.3997 -0.6849 -7.3727
1.2927 18.2477 -30.1055 -7.9606 2.2083 4.5115 0.0000 0.0000 0.0000 -7.9128 -15.2588 -33.7132 1.8375 8.5190 24.3019 0.0432 -0.2965 4.0439 1.3085 -7.2460 -20.4461 0.0000 0.0000 0.0000 36.0973 -3.1119 19.5313 -4.7869 -13.1397 39.8936 -3.1306 -15.7261 32.2414 -1.1221 -6.7288 18.9145 8.1583 0.2750 12.8822 0.2147 1.5416 1.2028 -4.6515 0.5625 -5.7529 0.0837 -0.7148 -8.9039 0.6829 -0.9030 -10.1960 0.1882 -0.4544 -1.6949 -0.0000 -0.0000 0.0000 -85.6559 32.0858 39.0891 121.2561 -55.9658 -86.7020 -0.0000 0.0000 -25.5469 37.2627 6.5912 4.9906 -7.1250 0.0000 -0.0000 9.0217 38.0969 -1.5485 -0.0000 -0.0000 0.0000 78.3290 3.2536 53.5881 -124.3361 55.0392 -89.2406 0.0000 0.0000 0.1413 -39.1075 20.8877 -16.1630 7.1250 -0.0000 -0.0000 -6.5173 -3.9374 -6.0947
1.2866 18.2025 -29.5998 -7.5649 2.5451 4.2149 0.0000 0.0000 0.0000 -9.1572 -14.7680 -32.4704 1.6834 8.1730 23.2408 0.0525 0.7503 4.1278 1.4544 -7.6229 -21.5743 0.0000 0.0000 0.0000 35.5452 -3.4461 17.3595 -6.1266 -14.5499 45.4876 -3.1189 -17.0346 32.3544 -1.2691 -7.1403 20.1317 7.9071 0.4108 12.9744 -0.2997 1.6063 2.4186 -5.0505 0.6864 -4.4890 1.2056 -0.8316 -13.1177 0.6623 -1.2040 -9.3449 -0.0287 -0.6267 -0.7704 -0.0000 0.0000 0.0000 -84.2918 28.3705 40.1727 120.9313 -56.0566 -86.4327 -0.0000 0.0000 -25.7058 37.5825 7.1481 5.4704 -7.1250 0.0000 -0.0000 9.3441 38.8116 -1.4393 -0.0000 0.0000 0.0000 78.9957 4.4399 52.5667 -120.9249 56.0584 -86.4273 0.0000 0.0000 0.5539 -37.4966 19.5351 -14.3889 7.1250 -0.0000 -0.0000 -5.7859 -5.9888 -5.1777
1.2821 18.1562 -29.0937 -6.8515 2.8474 3.8769 0.0000 0.0000 0.0000 -10.7557 -14.2676 -31.0135 1.6075 7.9955 22.7005 0.0552 1.2946 4.1746 1.7242 -8.2664 -23.5261 0.0000 0.0000 0.0000 34.5117 -3.8333 15.0938 -7.6281 -15.8388 51.2119 -3.1311 -18.0711 32.5771 -1.1221 -6.7287 18.9142 7.0806 0.2187 13.5633 -0.3027 1.3066 1.9286 -4.5601 0.5009 -5.3991 0.5066 -0.7844 -10.2473 1.0769 -1.0078 -10.3442 0.2339 -0.5212 -1.5257 -0.0000 -0.0000 0.0000 -84.6552 28.4988 40.3433 121.2912 -55.9559 -86.7310 -0.0000 0.0000 -25.9563 37.8439 7.3096 5.6451 -7.1250 0.0000 -0.0000 9.5860 39.0348 -1.4242 -0.0000 -0.0000 0.0000 78.5163 2.1750 53.2328 -117.6990 56.8926 -83.7378 0.0000 0.0000 0.4836 -36.5960 19.2928 -13.7846 7.1250 -0.0000 -0.0000 -5.2686 -6.5055 -4.6580
1.2742 18.0982 -28.5701 -5.9255 2.9144 3.8628 0.0000 0.0000 0.0000 -12.5110 -13.5060 -30.0167 1.6263 8.0400 22.8355 0.0634 0.7681 4.5447 1.9167 -8.6904 -24.8317 0.0000 0.0000 0.0000 33.1203 -3.9277 12.5613 -9.2663 -16.9761 57.0066 -3.1759 -18.9694 32.9524 -1.0778 -6.5990 18.5325 5.9830 0.3614 13.4087 -0.5951 1.3021 2.0920 -4.2414 0.5301 -5.1589 0.7542 -0.8666 -10.3205 1.1465 -1.1362 -10.2821 0.2121 -0.5938 -1.4948 0.0000 0.0000 0.0000 -84.1561 26.8386 41.2058 121.3900 -55.9280 -86.8129 -0.0000 0.0000 -26.5956 37.5719 7.3347 5.6093 -7.1250 0.0000 -0.0000 9.3496 39.0413 -1.3868 0.0000 0.0000 0.0000 78.5964 1.1688 52.7787 -113.9996 57.7077 -80.6243 0.0000 -0.0000 -0.3761 -36.4873 19.7068 -14.0041 7.1250 -0.0000 -0.0000 -5.1280 -6.0473 -4.5780
1.2504 18.0155 -28.0676 -5.0656 3.0516 3.6927 0.0000 0.0000 0.0000 -14.2746 -12.3392 -29.3615 1.7435 8.3101 23.6601 0.0576 -1.5197 5.3626 1.5280 -7.8048 -22.1227 0.0000 0.0000 0.0000 31.7412 -4.2606 9.9898 -11.0413 -17.9553 62.9158 -3.0957 -19.8426 32.7351 -1.0889 -6.6317 18.6287 4.7284 0.4165 13.6417 -0.7488 1.1993 2.0323 -3.6815 0.4931 -5.3866 0.8753 -0.9065 -9.0617 1.1124 -1.1797 -10.9903 0.1913 -0.6281 -1.9290 0.0000 0.0000 0.0000 -83.8535 25.6209 41.9345 121.7364 -55.8292 -87.0997 -0.0000 0.0000 -27.3756 37.7855 7.8649 6.0556 -7.1250 0.0000 -0.0000 9.5801 39.7170 -1.2608 0.0000 0.0000 0.0000 78.5785 -0.2336 52.3992 -110.2822 58.3871 -77.4698 0.0000 -0.0000 -1.3794 -37.1440 20.6955 -14.9868 7.1250 -0.0000 -0.0000 -5.3549 -4.7167 -4.9184
1.2239 17.9224 -27.5747 -4.3203 2.7109 2.8700 0.0000 0.0000 0.0000 -15.9197 -10.7222 -28.3401 1.9593 8.7807 25.1118 -0.0545 -5.1431 5.1304 0.7970 -5.6985 -15.9120 0.0000 0.0000 0.0000 30.2018 -4.6049 8.1947 -12.8885 -18.7415 68.7790 -2.8140 -20.8855 31.6032 -1.1955 -6.9379 19.5316 3.4597 0.5575 14.6959 -0.8609 1.2302 1.9754 -3.1129 0.5150 -6.0506 1.0061 -0.8846 -7.3731 1.0502 -1.1368 -11.5695 0.1625 -0.6201 -2.4053 0.0000 0.0000 0.0000 -83.5935 24.6843 42.6050 122.3518 -55.6500 -87.6083 -0.0000 0.0000 -28.3130 38.8530 8.9383 7.1340 -7.1250 0.0000 -0.0000 10.6275 41.1638 -1.0184 0.0000 0.0000 0.0000 78.5982 -1.6742 52.2586 -106.1042 58.9970 -73.8996 0.0000 -0.0000 -2.4772 -37.8942 21.8726 -16.1699 7.1250 -0.0000 -0.0000 -5.5878 -3.1282 -5.3002
1.1881 17.8283 -27.0868 -3.7460 1.0352 2.1164 0.0000 0.0000 0.0000 -17.1000 -8.2460 -27.6777 2.2976 9.4602 27.2457 -0.2063 -8.0394 3.4824 0.1873 -2.7872 -7.6867 0.0000 0.0000 0.0000 28.7117 -3.6437 6.6445 -14.8099 -19.3415 74.6635 -2.5545 -21.9086 30.6003 -1.2948 -7.2096 20.3379 1.9330 1.2353 15.8086 -0.9117 1.8963 1.8291 -2.4703 0.8580 -6.8162 0.8668 -0.8194 -5.6998 1.2802 -0.9998 -11.9331 0.2699 -0.5596 -2.8172 0.0000 -0.0000 0.0000 -83.2191 23.5995 43.5121 123.0314 -55.4465 -88.1687 -0.0000 0.0000 -29.3064 39.0240 9.9012 7.9337 -7.1250 0.0000 -0.0000 10.8720 42.3850 -0.7106 0.0000 -0.0000 0.0000 78.6625 -3.2199 51.9898 -101.6426 59.4816 -70.0652 0.0000 -0.0000 -3.1964 -38.0714 22.3809 -16.6072 7.1250 -0.0000 -0.0000 -5.5943 -2.4816 -5.3728
